<?xml version="1.0" encoding="UTF-8"?>
<svg version="1.1" xmlns="http://www.w3.org/2000/svg" width="602" height="135">
<path d="M0 0 C2.87472735 1.24988145 4.44101438 2.25468584 6.3125 4.75 C7.25959338 7.84957835 7.04122724 10.77677905 7 14 C7.95261719 13.94199219 8.90523438 13.88398437 9.88671875 13.82421875 C20.1003607 13.45682156 20.1003607 13.45682156 24.3125 16 C27.13443353 21.01677072 27.54942056 24.94882993 26.0625 30.5 C25.711875 31.325 25.36125 32.15 25 33 C25.969375 32.814375 26.93875 32.62875 27.9375 32.4375 C28.948125 32.293125 29.95875 32.14875 31 32 C32 33 32 33 32.09765625 35.28515625 C32.08605469 36.20167969 32.07445312 37.11820313 32.0625 38.0625 C32.05347656 38.98160156 32.04445313 39.90070313 32.03515625 40.84765625 C32.02355469 41.55792969 32.01195312 42.26820312 32 43 C30 44 30 44 27.0625 43.75 C23.93847366 43.65469379 23.93847366 43.65469379 22.3515625 45.80859375 C20.33655764 50.56656766 20.42713239 55.19334511 20.3125 60.3125 C20.27833984 61.33923828 20.24417969 62.36597656 20.20898438 63.42382812 C20.12677464 65.94884141 20.06170373 68.47440241 20 71 C16.37 71 12.74 71 9 71 C8.67 65.72 8.34 60.44 8 55 C2.89000316 59.08799748 2.45844076 59.44884537 1.125 65.25 C-1.07324923 73.14774219 -4.67686424 77.42287431 -11.0625 82.375 C-18.97179636 86.75035543 -27.35274777 87.31084274 -36.11328125 85.27734375 C-41.53171548 83.46631093 -45.4235949 81.59823513 -49 77 C-49.51304688 76.36191406 -50.02609375 75.72382812 -50.5546875 75.06640625 C-58.05636177 64.99836973 -57.2994818 53.1049785 -57.20581055 41.06396484 C-57.18737947 38.60894519 -57.18530269 36.15430092 -57.18554688 33.69921875 C-57.18063624 32.12499675 -57.17480992 30.55077729 -57.16796875 28.9765625 C-57.16685593 28.24942047 -57.1657431 27.52227844 -57.16459656 26.77310181 C-57.13001749 23.06110553 -56.88295895 19.61022318 -56 16 C-53.85423363 15.97314062 -51.70837355 15.95366912 -49.5625 15.9375 C-48.36753906 15.92589844 -47.17257813 15.91429687 -45.94140625 15.90234375 C-43 16 -43 16 -42 17 C-41.89327608 18.44656572 -41.85380802 19.8981813 -41.84228516 21.34863281 C-41.83202301 22.27339417 -41.82176086 23.19815552 -41.81118774 24.15093994 C-41.80388641 25.15816101 -41.79658508 26.16538208 -41.7890625 27.203125 C-41.76098714 29.31901806 -41.73232263 31.43490338 -41.703125 33.55078125 C-41.66188492 36.89957408 -41.625014 40.24822328 -41.59863281 43.59716797 C-41.57101553 46.82029474 -41.52513318 50.04275498 -41.4765625 53.265625 C-41.47330963 54.26474915 -41.47005676 55.26387329 -41.46670532 56.29327393 C-41.38437368 63.15857894 -41.38437368 63.15857894 -38 69 C-32.77288182 72.03172855 -27.99974963 72.82905631 -22 72 C-18.64462373 70.65784949 -16.54210798 69.54210798 -14 67 C-15.8253125 66.62875 -15.8253125 66.62875 -17.6875 66.25 C-21.63696993 65.23821 -24.14197156 64.02134435 -27 61 C-29.90299581 55.47517021 -30.48341537 51.00401432 -30.375 44.8125 C-30.35977295 43.55457642 -30.35977295 43.55457642 -30.34423828 42.27124023 C-29.9711777 27.24615322 -25.10886893 14.24112708 -14.1484375 3.7421875 C-9.66952318 0.11019516 -5.74905437 -0.74291955 0 0 Z M-9 3 C-9.33 5.64 -9.66 8.28 -10 11 C-9.01 10.67 -8.02 10.34 -7 10 C-7 7.69 -7 5.38 -7 3 C-7.66 3 -8.32 3 -9 3 Z M-1 3 C-0.67 5.64 -0.34 8.28 0 11 C1.32 11 2.64 11 4 11 C4.32835656 7.32728956 4.32835656 7.32728956 2.625 4.1875 C1.06631217 2.8033278 1.06631217 2.8033278 -1 3 Z M-5 5 C-5 6.65 -5 8.3 -5 10 C-4.01 10.495 -4.01 10.495 -3 11 C-3 9.02 -3 7.04 -3 5 C-3.66 5 -4.32 5 -5 5 Z M-14.453125 7.36328125 C-24.76539546 18.5498529 -27.89089739 32.06852807 -28 47 C-27.48326169 51.98875747 -26.60510089 56.65816518 -24 61 C-20.83057116 63.11295256 -20.00370047 63.25250929 -16.375 63.1875 C-15.18003906 63.17783203 -15.18003906 63.17783203 -13.9609375 63.16796875 C-11.99710266 63.21182898 -11.99710266 63.21182898 -11 62 C-10.75628653 57.69217985 -10.77141448 53.37841128 -10.75976562 49.06445312 C-10.75013178 46.90454536 -10.71915818 44.74561872 -10.6875 42.5859375 C-10.68096268 41.20052647 -10.67571508 39.81510863 -10.671875 38.4296875 C-10.6625293 37.17397949 -10.65318359 35.91827148 -10.64355469 34.62451172 C-11.0546936 30.44384845 -12.28093303 27.80339266 -14 24 C-13.75 20.75 -13.75 20.75 -13 17 C-12.79397302 15.02267609 -12.60742376 13.0432531 -12.4375 11.0625 C-12.35371094 10.10472656 -12.26992187 9.14695312 -12.18359375 8.16015625 C-12.12300781 7.44730469 -12.06242187 6.73445313 -12 6 C-13.21053673 5.88596634 -13.21053673 5.88596634 -14.453125 7.36328125 Z M5 16 C4.07395198 20.02659396 4.14964761 22.93720525 5 27 C4.01 27 3.02 27 2 27 C1.91323092 31.12486838 1.85968705 35.24950384 1.8125 39.375 C1.78736328 40.550625 1.76222656 41.72625 1.73632812 42.9375 C1.72666016 44.05898437 1.71699219 45.18046875 1.70703125 46.3359375 C1.6913208 47.37282715 1.67561035 48.4097168 1.65942383 49.47802734 C1.77181396 50.31027832 1.8842041 51.1425293 2 52 C2.99 52.66 3.98 53.32 5 54 C7.31316656 52.30610638 8.83186747 50.97994403 9.33007812 48.07617188 C9.3934207 45.78970912 9.34853117 43.53516518 9.25 41.25 C9.22292969 40.06083984 9.22292969 40.06083984 9.1953125 38.84765625 C9.14833082 36.89791652 9.07659044 34.94880122 9 33 C9.62648438 33.01160156 10.25296875 33.02320312 10.8984375 33.03515625 C12.12433594 33.04869141 12.12433594 33.04869141 13.375 33.0625 C14.59316406 33.07990234 14.59316406 33.07990234 15.8359375 33.09765625 C18.04937142 33.14466334 18.04937142 33.14466334 20 32 C20.33 32.99 20.66 33.98 21 35 C23.6487551 29.70248979 24.77938473 25.9428086 24 20 C21.17837362 16.97644932 19.59189284 16.06511472 15.44921875 15.609375 C14.20785156 15.65578125 12.96648437 15.7021875 11.6875 15.75 C10.43324219 15.78609375 9.17898437 15.8221875 7.88671875 15.859375 C6.93410156 15.90578125 5.98148438 15.9521875 5 16 Z M19 35 C20 37 20 37 20 37 Z " fill="#89C8F4" transform="translate(144,25)"/>
<path d="M0 0 C3.18732254 -0.08797281 6.37432788 -0.14071341 9.5625 -0.1875 C10.45775391 -0.21263672 11.35300781 -0.23777344 12.27539062 -0.26367188 C19.28148096 -0.34066188 23.99205614 0.63661554 29.625 5.0625 C32.83676034 9.03494042 34.88722573 13.36987767 37 18 C37.495 17.236875 37.99 16.47375 38.5 15.6875 C41.66485358 12.2852824 44.41499257 10.76551091 49 10 C53.96845401 10.33449362 58.32644078 11.48616075 62 15 C62.66 13.68 63.32 12.36 64 11 C66.64 11 69.28 11 72 11 C72.84161854 13.08000011 73.67300763 15.16414146 74.5 17.25 C75.19609375 18.99023438 75.19609375 18.99023438 75.90625 20.765625 C77 24 77 24 77 28 C77.66 28 78.32 28 79 28 C79.42152344 26.85660156 79.84304688 25.71320313 80.27734375 24.53515625 C80.83058521 23.04421741 81.38397847 21.55333489 81.9375 20.0625 C82.21529297 19.30775391 82.49308594 18.55300781 82.77929688 17.77539062 C84.88671875 12.11328125 84.88671875 12.11328125 86 11 C88.33297433 10.95907063 90.66705225 10.95758277 93 11 C94 13 94 13 93.22729492 15.58203125 C92.81584229 16.64808594 92.40438965 17.71414062 91.98046875 18.8125 C91.53509766 19.97007813 91.08972656 21.12765625 90.63085938 22.3203125 C90.15455078 23.53460938 89.67824219 24.74890625 89.1875 26 C88.72279297 27.21429688 88.25808594 28.42859375 87.77929688 29.6796875 C84.26511317 38.73488683 84.26511317 38.73488683 82 41 C78.5625 41.4375 78.5625 41.4375 75 41 C73.3125 39.125 73.3125 39.125 72 36 C71.649375 35.17886719 71.29875 34.35773438 70.9375 33.51171875 C68 26.46375868 68 26.46375868 68 24 C67.34 23.67 66.68 23.34 66 23 C66.33 22.34 66.66 21.68 67 21 C66.01 21 65.02 21 64 21 C64.185625 21.969375 64.37125 22.93875 64.5625 23.9375 C64.7790625 25.4534375 64.7790625 25.4534375 65 27 C64 28 64 28 62.05053711 28.11352539 C61.2178833 28.10828857 60.38522949 28.10305176 59.52734375 28.09765625 C58.62822266 28.09443359 57.72910156 28.09121094 56.80273438 28.08789062 C55.85720703 28.07951172 54.91167969 28.07113281 53.9375 28.0625 C52.98810547 28.05798828 52.03871094 28.05347656 51.06054688 28.04882812 C48.70696935 28.0370011 46.35351523 28.02052025 44 28 C45.3089572 31.12197478 45.3089572 31.12197478 48 33 C51.58003799 33.13769377 54.78704924 33.04017939 58.3125 32.375 C59.199375 32.25125 60.08625 32.1275 61 32 C63 34 63 34 63 35.9375 C61.38617239 39.26601944 59.44984516 39.78952801 56 41 C50.37405248 41.76801586 45.37618414 41.5854901 40.5390625 38.421875 C37.65632937 35.75863932 35.81492015 32.44583917 34 29 C33.56429687 29.54269531 33.12859375 30.08539063 32.6796875 30.64453125 C27.43549851 36.94436867 23.24029569 39.88883841 15 41 C12.56378908 41.08954721 10.12535066 41.13014858 7.6875 41.125 C6.45386719 41.12757812 5.22023438 41.13015625 3.94921875 41.1328125 C1 41 1 41 0 40 C-0.08868299 37.04294679 -0.11520296 34.10934944 -0.09765625 31.15234375 C-0.0962413 30.2659169 -0.09482635 29.37949005 -0.09336853 28.46620178 C-0.08775215 25.62326746 -0.07519691 22.78041069 -0.0625 19.9375 C-0.05748711 18.01497509 -0.05292384 16.09244896 -0.04882812 14.16992188 C-0.03777741 9.44658451 -0.02050183 4.72330542 0 0 Z M9 8 C9 15.92 9 23.84 9 32 C13.70789795 33.17697449 16.55849046 32.81490842 21 31 C24.26862506 28.23424034 25.26430809 25.74128802 25.9375 21.625 C26.26721707 16.92260651 25.3969621 14.0500394 23 10 C18.25464401 7.25464401 18.25464401 7.25464401 9 8 Z M45.5625 18.875 C43.90126826 20.69467209 43.90126826 20.69467209 44 22 C47.96 22 51.92 22 56 22 C55.67 20.68 55.34 19.36 55 18 C49.96221642 16.6645624 49.96221642 16.6645624 45.5625 18.875 Z M35 19 C36 23 36 23 36 23 Z M78 29 C79 31 79 31 79 31 Z " fill="#FCFBFD" transform="translate(322,53)"/>
<path d="M0 0 C3.70806596 -0.11674705 7.4156554 -0.18743274 11.125 -0.25 C12.17171875 -0.28351562 13.2184375 -0.31703125 14.296875 -0.3515625 C20.51622775 -0.43028848 24.31369769 -0.26027483 29 4 C30.59220976 7.18441952 30.3976617 10.5337155 30 14 C28.5 17 28.5 17 27 19 C28.65 20.65 30.3 22.3 32 24 C32.63394697 19.95858806 33.12404452 16.0934693 33 12 C35.78863007 10.60568496 37.92078868 10.74339906 41 11 C41.66 11.99 42.32 12.98 43 14 C43.556875 13.505 44.11375 13.01 44.6875 12.5 C47.38162983 10.75245633 48.85375007 10.73781251 52 11 C52.495 13.475 52.495 13.475 53 16 C53.763125 15.360625 54.52625 14.72125 55.3125 14.0625 C59.88537876 10.55308141 64.41947853 10.29649303 70 11 C75.64028777 13.92086331 75.64028777 13.92086331 77 18 C77.14777936 19.69867188 77.24747066 21.40177489 77.31640625 23.10546875 C77.35830078 24.08837891 77.40019531 25.07128906 77.44335938 26.08398438 C77.48267578 27.10814453 77.52199219 28.13230469 77.5625 29.1875 C77.60568359 30.22326172 77.64886719 31.25902344 77.69335938 32.32617188 C77.79944366 34.8839819 77.90150146 37.44188845 78 40 C71.375 41.125 71.375 41.125 68 40 C66.515 40.495 66.515 40.495 65 41 C60.53526829 41.36005901 58.04207973 41.49932987 54 39.5625 C51.44312576 36.28650488 51.47658676 34.1730067 51.53125 30.12109375 C52.10673666 27.5170166 52.88777658 26.59656324 55 25 C56.99551782 24.64080679 58.99548879 24.30503431 61 24 C61.33 23.34 61.66 22.68 62 22 C64.31 22.33 66.62 22.66 69 23 C68.01 21.02 68.01 21.02 67 19 C62.27557864 19.61865626 62.27557864 19.61865626 57.625 20.625 C57.08875 20.74875 56.5525 20.8725 56 21 C55.67 20.67 55.34 20.34 55 20 C49.12353969 19.53668563 49.12353969 19.53668563 44 22 C43.51080027 23.9089105 43.51080027 23.9089105 43.5234375 26.09765625 C43.47703125 27.29938477 43.47703125 27.29938477 43.4296875 28.52539062 C43.41164062 29.36263672 43.39359375 30.19988281 43.375 31.0625 C43.10424901 39.89575099 43.10424901 39.89575099 42 41 C38.5 41.125 38.5 41.125 35 41 C32.95301586 38.95301586 33.29954307 34.69588759 33 32 C32.443125 32.763125 31.88625 33.52625 31.3125 34.3125 C27.71610734 38.49209147 24.38932323 40.20639149 19 41 C15.91542813 41.13943209 12.83723743 41.13970113 9.75 41.125 C8.50863281 41.13080078 8.50863281 41.13080078 7.2421875 41.13671875 C1.12669335 41.12669335 1.12669335 41.12669335 0 40 C-0.08868299 37.04294679 -0.11520296 34.10934944 -0.09765625 31.15234375 C-0.0962413 30.2659169 -0.09482635 29.37949005 -0.09336853 28.46620178 C-0.08775215 25.62326746 -0.07519691 22.78041069 -0.0625 19.9375 C-0.05748711 18.01497509 -0.05292384 16.09244896 -0.04882812 14.16992188 C-0.03777741 9.44658451 -0.02050183 4.72330542 0 0 Z M9 7 C9 9.97 9 12.94 9 16 C10.81242052 16.02687279 12.62495233 16.04633715 14.4375 16.0625 C15.95150391 16.07990234 15.95150391 16.07990234 17.49609375 16.09765625 C19.94021067 16.28612676 19.94021067 16.28612676 21 15 C21.04080783 13.00041636 21.04254356 10.99954746 21 9 C16.8794254 7.00214565 13.54805635 6.82164485 9 7 Z M9 23 C9 26.3 9 29.6 9 33 C10.77007714 33.08114106 12.54122098 33.13925505 14.3125 33.1875 C15.29863281 33.22230469 16.28476563 33.25710937 17.30078125 33.29296875 C20.01232937 33.22549301 20.01232937 33.22549301 21.84375 31.65625 C23.425736 29.39016195 23.21871147 27.6974415 23 25 C19.78817851 23.09391902 17.46117397 22.77733753 13.75 22.875 C11.39875 22.936875 11.39875 22.936875 9 23 Z M61 30 C59.94098078 31.97922654 59.94098078 31.97922654 60 34 C60.33 34.33 60.66 34.66 61 35 C65.3409369 34.85841338 65.3409369 34.85841338 69 33 C69.04063832 31.33382885 69.042721 29.66611905 69 28 C66.00567607 28 63.74177497 28.83328724 61 30 Z " fill="#FCFBFD" transform="translate(197,53)"/>
<path d="M0 0 C2.14576637 -0.02685938 4.29162645 -0.04633088 6.4375 -0.0625 C7.63246094 -0.07410156 8.82742187 -0.08570313 10.05859375 -0.09765625 C13 0 13 0 14 1 C14.10672392 2.44656572 14.14619198 3.8981813 14.15771484 5.34863281 C14.16797699 6.27339417 14.17823914 7.19815552 14.18881226 8.15093994 C14.19611359 9.15816101 14.20341492 10.16538208 14.2109375 11.203125 C14.23901286 13.31901806 14.26767737 15.43490338 14.296875 17.55078125 C14.33811508 20.89957408 14.374986 24.24822328 14.40136719 27.59716797 C14.42898447 30.82029474 14.47486682 34.04275498 14.5234375 37.265625 C14.52669037 38.26474915 14.52994324 39.26387329 14.53329468 40.29327393 C14.61562632 47.15857894 14.61562632 47.15857894 18 53 C23.24227389 56.04051885 27.98600119 56.80406944 34 56 C38.18422547 54.4411709 40.94879749 52.18461145 44.2890625 49.27734375 C47.48911985 46.88825984 51.1705646 45.12330105 55 44 C55.99 44.33 56.98 44.66 58 45 C56.31860727 54.95561487 52.16857655 61.04280605 44 67 C36.83530833 71.32011133 27.83114111 71.13030471 19.89453125 69.2734375 C14.47001764 67.47258683 10.57733378 65.59942914 7 61 C6.23042969 60.04287109 6.23042969 60.04287109 5.4453125 59.06640625 C-2.05636177 48.99836973 -1.2994818 37.1049785 -1.20581055 25.06396484 C-1.18737947 22.60894519 -1.18530269 20.15430092 -1.18554688 17.69921875 C-1.18063624 16.12499675 -1.17480992 14.55077729 -1.16796875 12.9765625 C-1.16685593 12.24942047 -1.1657431 11.52227844 -1.16459656 10.77310181 C-1.13001749 7.06110553 -0.88295895 3.61022318 0 0 Z " fill="#B099F7" transform="translate(88,41)"/>
<path d="M0 0 C0.88236328 -0.02900391 1.76472656 -0.05800781 2.67382812 -0.08789062 C8.77939299 -0.14655459 13.35727992 0.81465604 18.4375 4.3125 C21.81883642 7.86290324 22.69749706 10.59662081 22.875 15.375 C22.64542462 20.32197917 21.62131602 23.16538677 18.04296875 26.68359375 C13.43452332 30.80202726 10.19670775 31.45406852 4.1875 31.375 C1.83625 31.3440625 1.83625 31.3440625 -0.5625 31.3125 C-0.5625 36.2625 -0.5625 41.2125 -0.5625 46.3125 C-7.49609375 46.41015625 -7.49609375 46.41015625 -9.5625 46.3125 C-11.10751451 44.76748549 -10.68969131 43.3258978 -10.69189453 41.17578125 C-10.69504669 40.29817139 -10.69819885 39.42056152 -10.70144653 38.51635742 C-10.6994223 37.56220947 -10.69739807 36.60806152 -10.6953125 35.625 C-10.69626923 34.65216064 -10.69722595 33.67932129 -10.69821167 32.67700195 C-10.69889358 30.615722 -10.69703853 28.55443992 -10.69287109 26.49316406 C-10.687523 23.32612312 -10.69281572 20.159224 -10.69921875 16.9921875 C-10.69855797 14.99479135 -10.69727681 12.99739529 -10.6953125 11 C-10.69733673 10.04585205 -10.69936096 9.0917041 -10.70144653 8.10864258 C-10.69829437 7.23103271 -10.69514221 6.35342285 -10.69189453 5.44921875 C-10.69109894 4.67280029 -10.69030334 3.89638184 -10.68948364 3.09643555 C-10.35452416 -1.60925821 -3.55719873 0.03781572 0 0 Z M-0.5625 9.3125 C-0.5625 13.6025 -0.5625 17.8925 -0.5625 22.3125 C1.025625 22.374375 2.61375 22.43625 4.25 22.5 C5.14332031 22.53480469 6.03664063 22.56960937 6.95703125 22.60546875 C9.47283135 22.51584594 9.47283135 22.51584594 11.23828125 20.984375 C13.10417962 18.3830574 12.81839201 16.42311807 12.4375 13.3125 C11.32294916 11.05724093 11.32294916 11.05724093 9.4375 9.3125 C6.92869384 8.82988333 6.92869384 8.82988333 4.25 9.0625 C2.661875 9.145 1.07375 9.2275 -0.5625 9.3125 Z " fill="#FBFAFD" transform="translate(431.5625,48.6875)"/>
<path d="M0 0 C8.81299886 -0.44811859 8.81299886 -0.44811859 13 3 C15.36925518 6.31695725 15.54101114 10.02209653 16 14 C16.99 14.33 17.98 14.66 19 15 C19 15.66 19 16.32 19 17 C17.02 17 15.04 17 13 17 C13 20.3 13 23.6 13 27 C12.01 27 11.02 27 10 27 C10.0721875 27.6084375 10.144375 28.216875 10.21875 28.84375 C11.10824048 37.24449341 11.09524389 45.565624 11 54 C10.34 54 9.68 54 9 54 C8.95875 54.5775 8.9175 55.155 8.875 55.75 C7.517614 59.24042115 5.21937126 60.23845723 2 62 C0.00849913 62.38083512 -1.99157346 62.72191017 -4 63 C-3.97643433 61.60092407 -3.97643433 61.60092407 -3.95239258 60.17358398 C-3.90102019 56.68654736 -3.86353231 53.1999176 -3.83520508 49.71264648 C-3.82019278 48.20834983 -3.79977647 46.70409639 -3.77368164 45.19995117 C-3.73696184 43.02772304 -3.72019839 40.85607749 -3.70703125 38.68359375 C-3.6913208 37.37962646 -3.67561035 36.07565918 -3.65942383 34.73217773 C-4.04893123 30.46379088 -5.2141618 27.86032042 -7 24 C-7.07421875 20.91015625 -7.07421875 20.91015625 -6.6875 18.0625 C-6.56761719 17.10472656 -6.44773438 16.14695312 -6.32421875 15.16015625 C-6.16373047 14.09087891 -6.16373047 14.09087891 -6 13 C-5.01 14.485 -5.01 14.485 -4 16 C-3.01 16.33 -2.02 16.66 -1 17 C-1.020625 16.030625 -1.04125 15.06125 -1.0625 14.0625 C-1 11 -1 11 0 10 C0.36760731 7.67182036 0.70241581 5.3381615 1 3 C0.34 3 -0.32 3 -1 3 C-0.67 2.01 -0.34 1.02 0 0 Z M7 3 C7.33 5.64 7.66 8.28 8 11 C9.32 11 10.64 11 12 11 C12.32835656 7.32728956 12.32835656 7.32728956 10.625 4.1875 C9.06631217 2.8033278 9.06631217 2.8033278 7 3 Z M3 5 C3 6.65 3 8.3 3 10 C3.99 10.495 3.99 10.495 5 11 C5 9.02 5 7.04 5 5 C4.34 5 3.68 5 3 5 Z " fill="#AD98F5" transform="translate(136,25)"/>
<path d="M0 0 C4.72898073 2.79878451 7.38247001 5.72314264 9.29296875 10.93359375 C10.20204154 17.11528875 9.57691388 21.52555799 6.60546875 27.05859375 C2.94317213 31.39552396 -0.0077904 33.68357134 -5.6875 34.3125 C-11.85961207 34.60196365 -15.4196428 33.7400112 -20.39453125 30.05859375 C-25.23626531 24.83461753 -25.69632088 20.67692673 -25.60546875 13.78125 C-25.20567287 8.62092164 -23.17796174 5.56835982 -19.39453125 2.24609375 C-13.8199592 -1.81869837 -6.47894073 -2.54718551 0 0 Z M-13.76953125 8.37109375 C-16.34227325 12.6260132 -16.03166143 17.20603249 -15.39453125 22.05859375 C-13.61343484 25.47712869 -13.61343484 25.47712869 -9.51953125 25.93359375 C-6.6212151 26.19659885 -5.61173782 26.16998173 -2.95703125 24.80859375 C-0.63454344 22.20740741 -0.399623 20.12733233 -0.14453125 16.68359375 C-0.40963784 12.83954817 -1.08043248 11.08472291 -3.39453125 8.05859375 C-7.04272047 6.23449914 -10.22672904 6.41322937 -13.76953125 8.37109375 Z " fill="#FCFBFD" transform="translate(504.39453125,60.94140625)"/>
<path d="M0 0 C5.625 -0.25 5.625 -0.25 9 2 C9.99 1.34 10.98 0.68 12 0 C15.06475543 -0.54522803 17.93524839 -0.54842924 21 0 C24 2.4375 24 2.4375 26 5 C26.33 5.33 26.66 5.66 27 6 C27.09932153 7.69558726 27.13080007 9.39525747 27.1328125 11.09375 C27.13474609 12.63869141 27.13474609 12.63869141 27.13671875 14.21484375 C27.13285156 15.29894531 27.12898438 16.38304688 27.125 17.5 C27.13080078 19.12615234 27.13080078 19.12615234 27.13671875 20.78515625 C27.13542969 21.81511719 27.13414062 22.84507813 27.1328125 23.90625 C27.13168457 24.85822266 27.13055664 25.81019531 27.12939453 26.79101562 C27 29 27 29 26 30 C23 30.125 23 30.125 20 30 C18.38219843 28.38219843 18.77727853 26.54364482 18.68359375 24.30859375 C18.64169922 23.36435547 18.59980469 22.42011719 18.55664062 21.44726562 C18.51732422 20.45404297 18.47800781 19.46082031 18.4375 18.4375 C18.39431641 17.44041016 18.35113281 16.44332031 18.30664062 15.41601562 C18.20019702 12.9441585 18.09818072 10.4721969 18 8 C13.85906302 7.79029441 13.85906302 7.79029441 10 9 C8.6985552 14.72635711 8.95595672 20.45812512 9.0625 26.3046875 C9 29 9 29 8 30 C4.5 30.125 4.5 30.125 1 30 C0 29 0 29 -0.11352539 26.22436523 C-0.10828857 25.01466064 -0.10305176 23.80495605 -0.09765625 22.55859375 C-0.09443359 21.25341797 -0.09121094 19.94824219 -0.08789062 18.60351562 C-0.07953401 17.2148431 -0.07106905 15.82617123 -0.0625 14.4375 C-0.05748666 13.04492344 -0.05292347 11.65234519 -0.04882812 10.25976562 C-0.03699434 6.8398013 -0.0205088 3.41992156 0 0 Z " fill="#FCFCFD" transform="translate(290,64)"/>
<path d="M0 0 C0.33 3.3 0.66 6.6 1 10 C-1.1965625 10.4640625 -1.1965625 10.4640625 -3.4375 10.9375 C-6.50449556 11.41159649 -6.50449556 11.41159649 -9 13 C-9.15714654 14.63256758 -9.25085414 16.27135338 -9.31640625 17.91015625 C-9.35830078 18.89951172 -9.40019531 19.88886719 -9.44335938 20.90820312 C-9.48267578 21.94912109 -9.52199219 22.99003906 -9.5625 24.0625 C-9.60568359 25.10728516 -9.64886719 26.15207031 -9.69335938 27.22851562 C-9.79981105 29.81883972 -9.90044308 32.40940175 -10 35 C-13.3 35 -16.6 35 -20 35 C-20.33 23.78 -20.66 12.56 -21 1 C-17.7 1 -14.4 1 -11 1 C-10.67 1.99 -10.34 2.98 -10 4 C-9.566875 3.525625 -9.13375 3.05125 -8.6875 2.5625 C-5.86594649 -0.05004955 -3.8184786 0 0 0 Z " fill="#FBFAFD" transform="translate(477,60)"/>
<path d="M0 0 C2.14576637 -0.02685938 4.29162645 -0.04633088 6.4375 -0.0625 C7.63246094 -0.07410156 8.82742187 -0.08570313 10.05859375 -0.09765625 C13 0 13 0 14 1 C14.10672392 2.44656572 14.14619198 3.8981813 14.15771484 5.34863281 C14.16797699 6.27339417 14.17823914 7.19815552 14.18881226 8.15093994 C14.19611359 9.15816101 14.20341492 10.16538208 14.2109375 11.203125 C14.23901286 13.31901806 14.26767737 15.43490338 14.296875 17.55078125 C14.33811508 20.89957408 14.374986 24.24822328 14.40136719 27.59716797 C14.42898447 30.82029474 14.47486682 34.04275498 14.5234375 37.265625 C14.52669037 38.26474915 14.52994324 39.26387329 14.53329468 40.29327393 C14.61562632 47.15857894 14.61562632 47.15857894 18 53 C23.24227389 56.04051885 27.98600119 56.80406944 34 56 C38.18422547 54.4411709 40.94879749 52.18461145 44.2890625 49.27734375 C47.48911985 46.88825984 51.1705646 45.12330105 55 44 C55.99 44.33 56.98 44.66 58 45 C57.71640113 46.4391134 57.42278601 47.87625518 57.125 49.3125 C56.96257812 50.11300781 56.80015625 50.91351563 56.6328125 51.73828125 C56 54 56 54 54 57 C53.01 57 52.02 57 51 57 C50.195625 57.804375 49.39125 58.60875 48.5625 59.4375 C46.1574067 61.8425933 45.26818838 62.63686796 42 63 C42 62.34 42 61.68 42 61 C40.68 60.34 39.36 59.68 38 59 C38.495 58.01 38.495 58.01 39 57 C37.4840625 57.495 37.4840625 57.495 35.9375 58 C29.22125874 59.87838538 24.19553239 59.26673526 18 56 C13.76856604 53.45327354 13.76856604 53.45327354 12 51 C11.16475562 47.25904698 11.30106829 43.60961904 11.4140625 39.79296875 C11.42255219 38.71243729 11.43104187 37.63190582 11.43978882 36.51863098 C11.47332488 33.07389832 11.54861029 29.6315228 11.625 26.1875 C11.65509908 23.84964322 11.68247497 21.51174969 11.70703125 19.17382812 C11.77311791 13.44831317 11.8766464 7.72455594 12 2 C8.04 2 4.08 2 0 2 C0 1.34 0 0.68 0 0 Z M40 63 C40.99 63.495 40.99 63.495 42 64 C41.01 64.495 41.01 64.495 40 65 C40 64.34 40 63.68 40 63 Z " fill="#AF9AF2" transform="translate(88,41)"/>
<path d="M0 0 C8.81299886 -0.44811859 8.81299886 -0.44811859 13 3 C15.36925518 6.31695725 15.54101114 10.02209653 16 14 C16.99 14.33 17.98 14.66 19 15 C19 15.66 19 16.32 19 17 C17.02 17 15.04 17 13 17 C13 20.3 13 23.6 13 27 C10.69 26.34 8.38 25.68 6 25 C6 27.97 6 30.94 6 34 C4.68 33.67 3.36 33.34 2 33 C2 30.69 2 28.38 2 26 C1.01 26 0.02 26 -1 26 C-1 23.36 -1 20.72 -1 18 C-1.99 18 -2.98 18 -4 18 C-4 19.98 -4 21.96 -4 24 C-4.66 24 -5.32 24 -6 24 C-6 20.37 -6 16.74 -6 13 C-5.01 14.485 -5.01 14.485 -4 16 C-3.01 16.33 -2.02 16.66 -1 17 C-1.020625 16.030625 -1.04125 15.06125 -1.0625 14.0625 C-1 11 -1 11 0 10 C0.36760731 7.67182036 0.70241581 5.3381615 1 3 C0.34 3 -0.32 3 -1 3 C-0.67 2.01 -0.34 1.02 0 0 Z M7 3 C7.33 5.64 7.66 8.28 8 11 C9.32 11 10.64 11 12 11 C12.32835656 7.32728956 12.32835656 7.32728956 10.625 4.1875 C9.06631217 2.8033278 9.06631217 2.8033278 7 3 Z M3 5 C3 6.65 3 8.3 3 10 C3.99 10.495 3.99 10.495 5 11 C5 9.02 5 7.04 5 5 C4.34 5 3.68 5 3 5 Z " fill="#BCBEC2" transform="translate(136,25)"/>
<path d="M0 0 C0 5.28 0 10.56 0 16 C-1.32 15.67 -2.64 15.34 -4 15 C-5.10844919 11.67465243 -4.84454356 9.37817425 -4 6 C-14.65114071 17.1465426 -17.90520688 30.86469793 -18 46 C-17.60490159 49.43296622 -16.92472132 52.67480346 -16 56 C-15.87367187 56.72832031 -15.74734375 57.45664063 -15.6171875 58.20703125 C-15.41351563 58.79871094 -15.20984375 59.39039063 -15 60 C-8.76717258 62.07760914 -1.42577932 62.08831083 4.5625 59.25 C7.45692074 57.56705846 9.1337779 55.79933314 11 53 C14.04497553 51.03549966 15.1849907 51 19 51 C19 53.31 19 55.62 19 58 C18.01 57.505 18.01 57.505 17 57 C17 56.01 17 55.02 17 54 C14.56070254 55.92576115 12.19909405 57.80090595 10 60 C8.01171875 60.78125 8.01171875 60.78125 5.6875 61.5 C3.15503384 62.29568713 0.79720329 63.09174137 -1.625 64.1875 C-6.26132073 65.77360972 -9.76861451 65.57947552 -14.1875 63.5 C-18.12503963 59.99996477 -20.50365948 56.02355476 -21.36743164 50.76171875 C-21.50027193 48.41042047 -21.50405272 46.10400309 -21.4375 43.75 C-21.42283691 42.915896 -21.40817383 42.08179199 -21.39306641 41.22241211 C-20.93424505 26.12076009 -16.05110826 13.11966851 -4.953125 2.64453125 C-1.81235154 0 -1.81235154 0 0 0 Z " fill="#CACAF1" transform="translate(135,26)"/>
<path d="M0 0 C11.7427674 -0.7736816 11.7427674 -0.7736816 16.25 2 C18.42510426 5.72875016 19.18459815 8.69550679 19 13 C18.0625 16.5 18.0625 16.5 17 19 C17.969375 18.814375 18.93875 18.62875 19.9375 18.4375 C21.4534375 18.2209375 21.4534375 18.2209375 23 18 C24 19 24 19 24.09765625 21.28515625 C24.08605469 22.20167969 24.07445312 23.11820313 24.0625 24.0625 C24.05347656 24.98160156 24.04445312 25.90070313 24.03515625 26.84765625 C24.02355469 27.55792969 24.01195312 28.26820312 24 29 C22 30 22 30 19.125 29.9375 C16.04039681 29.99919206 14.58001484 30.41229856 12 32 C12.75 30.0625 12.75 30.0625 14 28 C15.9375 27.3125 15.9375 27.3125 18 27 C18.99 26.67 19.98 26.34 21 26 C21 24.68 21 23.36 21 22 C20.01 22 19.02 22 18 22 C17.01 22 16.02 22 15 22 C13.2483394 24.02188211 13.2483394 24.02188211 11.625 26.625 C8.93873496 30.64013926 6.16522949 34.35519029 3 38 C1.68 37.67 0.36 37.34 -1 37 C-0.505 36.505 -0.505 36.505 0 36 C0.04711481 34.27147532 0.03732823 32.54126371 0 30.8125 C-0.0423452 26.74736054 0.13685626 22.9920398 1 19 C4.63 18.67 8.26 18.34 12 18 C12.33 18.66 12.66 19.32 13 20 C14.97647053 15.05882367 15.51623541 11.24839332 15 6 C13.61760705 3.79573513 13.61760705 3.79573513 11 3 C8.27951115 2.77675378 5.74034764 2.86298262 3 3 C3 2.34 3 1.68 3 1 C2.01 0.67 1.02 0.34 0 0 Z M11 21 C12 23 12 23 12 23 Z " fill="#ADE0FA" transform="translate(152,39)"/>
<path d="M0 0 C2.64 0 5.28 0 8 0 C8.02465746 4.1117256 8.04283959 8.22342278 8.05493164 12.33520508 C8.0599708 13.73495228 8.06680216 15.1346942 8.07543945 16.53442383 C8.0875232 18.54245777 8.09269807 20.55052957 8.09765625 22.55859375 C8.10289307 23.76829834 8.10812988 24.97800293 8.11352539 26.22436523 C8 29 8 29 7 30 C4.66702567 30.04092937 2.33294775 30.04241723 0 30 C-1.11984119 26.64047644 -1.028066 24.33089543 -0.87890625 20.80078125 C-0.83056641 19.59228516 -0.78222656 18.38378906 -0.73242188 17.13867188 C-0.67634766 15.87603516 -0.62027344 14.61339844 -0.5625 13.3125 C-0.51029297 12.03826172 -0.45808594 10.76402344 -0.40429688 9.45117188 C-0.27449555 6.30053961 -0.1395244 3.15021423 0 0 Z " fill="#FDFCFD" transform="translate(278,64)"/>
<path d="M0 0 C0.99 0 1.98 0 3 0 C3 2.64 3 5.28 3 8 C3.99 8 4.98 8 6 8 C6.33 10.31 6.66 12.62 7 15 C7.99 15.33 8.98 15.66 10 16 C10 13.03 10 10.06 10 7 C10.99 6.67 11.98 6.34 13 6 C13 6.66 13 7.32 13 8 C13.66 8.33 14.32 8.66 15 9 C15 17.91 15 26.82 15 36 C14.34 36 13.68 36 13 36 C12.67 36.99 12.34 37.98 12 39 C12 31.74 12 24.48 12 17 C8.7 17 5.4 17 2 17 C1.67 18.32 1.34 19.64 1 21 C0.896875 19.824375 0.79375 18.64875 0.6875 17.4375 C0.17085042 13.17514097 -1.1508361 9.85912466 -3 6 C-2.01 6 -1.02 6 0 6 C0 4.02 0 2.04 0 0 Z " fill="#ADA3E1" transform="translate(132,43)"/>
<path d="M0 0 C2.14576637 -0.02685938 4.29162645 -0.04633088 6.4375 -0.0625 C7.63246094 -0.07410156 8.82742187 -0.08570313 10.05859375 -0.09765625 C13 0 13 0 14 1 C14.10672392 2.44656572 14.14619198 3.8981813 14.15771484 5.34863281 C14.16797699 6.27339417 14.17823914 7.19815552 14.18881226 8.15093994 C14.19611359 9.15816101 14.20341492 10.16538208 14.2109375 11.203125 C14.23901286 13.31901806 14.26767737 15.43490338 14.296875 17.55078125 C14.33811508 20.89957408 14.374986 24.24822328 14.40136719 27.59716797 C14.42898447 30.82029474 14.47486682 34.04275498 14.5234375 37.265625 C14.52669037 38.26474915 14.52994324 39.26387329 14.53329468 40.29327393 C14.61562632 47.15857894 14.61562632 47.15857894 18 53 C23.85255911 56.39448429 29.51364935 56.96312482 36.12890625 55.54296875 C37.76869132 55.08250385 39.38765678 54.5488828 41 54 C37.09116918 58.48791687 34.38429816 58.82338532 28.625 59.25 C22.7896437 58.84756163 17.71116206 56.57008427 13.25482178 52.7406311 C10.55416885 48.99440948 11.28305918 44.21791991 11.4140625 39.79296875 C11.42255219 38.71243729 11.43104187 37.63190582 11.43978882 36.51863098 C11.47332488 33.07389832 11.54861029 29.6315228 11.625 26.1875 C11.65509908 23.84964322 11.68247497 21.51174969 11.70703125 19.17382812 C11.77311791 13.44831317 11.8766464 7.72455594 12 2 C8.04 2 4.08 2 0 2 C0 1.34 0 0.68 0 0 Z " fill="#A597E2" transform="translate(88,41)"/>
<path d="M0 0 C2.47923801 -0.02685095 4.9581884 -0.04676547 7.4375 -0.0625 C8.14455078 -0.07087891 8.85160156 -0.07925781 9.58007812 -0.08789062 C11.38693559 -0.09653588 13.19387603 -0.05220011 15 0 C16 1 16 1 16.125 4.5 C16 8 16 8 15 9 C12.46950598 9.07313567 9.96695163 9.09247527 7.4375 9.0625 C6.37112305 9.05573242 6.37112305 9.05573242 5.28320312 9.04882812 C3.52209987 9.03700864 1.76103964 9.01907263 0 9 C0 6.03 0 3.06 0 0 Z " fill="#FBFBFE" transform="translate(177,72)"/>
<path d="M0 0 C0 5.28 0 10.56 0 16 C-1.32 15.67 -2.64 15.34 -4 15 C-5.10844919 11.67465243 -4.84454356 9.37817425 -4 6 C-10.85769314 13.17665561 -14.65246993 21.39646789 -17 31 C-17.66 31 -18.32 31 -19 31 C-20.83076257 25.5077123 -17.32663085 20.05502528 -15 15 C-12.54492742 10.78637824 -5.33446701 0 0 0 Z " fill="#CFD6DE" transform="translate(135,26)"/>
<path d="M0 0 C1.98 0.66 3.96 1.32 6 2 C6.66 5.3 7.32 8.6 8 12 C7.01 12.495 7.01 12.495 6 13 C6 15.97 6 18.94 6 22 C4.68 21.67 3.36 21.34 2 21 C2 18.36 2 15.72 2 13 C1.34 13 0.68 13 0 13 C0 8.71 0 4.42 0 0 Z " fill="#4E4C53" transform="translate(136,37)"/>
<path d="M0 0 C2.05078125 0.03255208 4.1015625 0.06510417 6.15234375 0.09765625 C6.58984375 2.59765625 6.58984375 2.59765625 6.15234375 6.09765625 C4.06771193 9.01300602 1.67729012 11.5598275 -0.84765625 14.09765625 C-1.62770683 11.20882487 -2.12879517 8.38209847 -2.47265625 5.41015625 C-2.61574219 4.22873047 -2.61574219 4.22873047 -2.76171875 3.0234375 C-2.79007813 2.38792969 -2.8184375 1.75242188 -2.84765625 1.09765625 C-1.84765625 0.09765625 -1.84765625 0.09765625 0 0 Z " fill="#8CCAF1" transform="translate(155.84765625,58.90234375)"/>
<path d="M0 0 C0.66 0.66 1.32 1.32 2 2 C1.67028521 5.29714793 1.3773161 6.6226839 -1 9 C-6.56818182 8.43181818 -6.56818182 8.43181818 -8 7 C-7.6875 3.5 -7.6875 3.5 -7 0 C-4.29393021 -1.35303489 -2.8671629 -0.7884698 0 0 Z " fill="#FBFBFD" transform="translate(285,50)"/>
<path d="M0 0 C11.7427674 -0.7736816 11.7427674 -0.7736816 16.25 2 C18.42510426 5.72875016 19.18459815 8.69550679 19 13 C18.0625 16.5 18.0625 16.5 17 19 C16.34 19 15.68 19 15 19 C15.06960937 17.64455078 15.06960937 17.64455078 15.140625 16.26171875 C15.17671875 15.08222656 15.2128125 13.90273438 15.25 12.6875 C15.31960937 10.92986328 15.31960937 10.92986328 15.390625 9.13671875 C15.30297869 5.96010621 15.30297869 5.96010621 13.25 4.09375 C9.68873354 2.36257881 6.91995303 2.80400235 3 3 C3 2.34 3 1.68 3 1 C2.01 0.67 1.02 0.34 0 0 Z " fill="#BEC5D1" transform="translate(152,39)"/>
<path d="M0 0 C2.14576637 -0.02685938 4.29162645 -0.04633088 6.4375 -0.0625 C7.63246094 -0.07410156 8.82742187 -0.08570313 10.05859375 -0.09765625 C13 0 13 0 14 1 C14.08737645 2.85369611 14.10698153 4.71067541 14.09765625 6.56640625 C14.09443359 7.69111328 14.09121094 8.81582031 14.08789062 9.97460938 C14.07951172 11.15861328 14.07113281 12.34261719 14.0625 13.5625 C14.05798828 14.75037109 14.05347656 15.93824219 14.04882812 17.16210938 C14.03699675 20.10812226 14.02051287 23.05403681 14 26 C11.83073341 22.74610012 11.75919951 21.86604043 11.8046875 18.11328125 C11.81113281 17.17548828 11.81757812 16.23769531 11.82421875 15.27148438 C11.84097656 14.29501953 11.85773438 13.31855469 11.875 12.3125 C11.88402344 11.32443359 11.89304687 10.33636719 11.90234375 9.31835938 C11.92591434 6.87880294 11.96178531 4.43937099 12 2 C8.04 2 4.08 2 0 2 C0 1.34 0 0.68 0 0 Z " fill="#9B8ED7" transform="translate(88,41)"/>
<path d="M0 0 C5.63788301 1.47075209 5.63788301 1.47075209 7.21875 3.78125 C8.13635118 6.38723736 8.02483285 8.03113665 7.625 10.75 C7.45871094 11.94882812 7.45871094 11.94882812 7.2890625 13.171875 C7.14597656 14.07679687 7.14597656 14.07679687 7 15 C6.67 15 6.34 15 6 15 C5.91363281 14.30132812 5.82726562 13.60265625 5.73828125 12.8828125 C5.59777344 11.97273438 5.45726562 11.06265625 5.3125 10.125 C5.18488281 9.22007813 5.05726563 8.31515625 4.92578125 7.3828125 C4.62027344 6.59648438 4.31476563 5.81015625 4 5 C1.525 4.01 1.525 4.01 -1 3 C-1 7.29 -1 11.58 -1 16 C-0.34 16.33 0.32 16.66 1 17 C0.01 17 -0.98 17 -2 17 C-2 14.36 -2 11.72 -2 9 C-2.99 9 -3.98 9 -5 9 C-5 10.98 -5 12.96 -5 15 C-5.66 15 -6.32 15 -7 15 C-7 11.37 -7 7.74 -7 4 C-6.01 5.485 -6.01 5.485 -5 7 C-4.01 7.33 -3.02 7.66 -2 8 C-2.04125 7.05125 -2.0825 6.1025 -2.125 5.125 C-2 2 -2 2 0 0 Z " fill="#9E9EA4" transform="translate(137,34)"/>
<path d="M0 0 C2.64 0 5.28 0 8 0 C8.33 0.99 8.66 1.98 9 3 C8.67 3.33 8.34 3.66 8 4 C8.08963062 5.69141656 8.24577676 7.37959602 8.4375 9.0625 C8.53933594 9.98160156 8.64117187 10.90070312 8.74609375 11.84765625 C8.82988281 12.55792969 8.91367188 13.26820312 9 14 C7.015625 12.69921875 7.015625 12.69921875 5 11 C4.75 7.8125 4.75 7.8125 5 5 C4.34 5 3.68 5 3 5 C3.33 6.32 3.66 7.64 4 9 C3.01 9 2.02 9 1 9 C1 7.02 1 5.04 1 3 C0.34 3 -0.32 3 -1 3 C-0.67 2.01 -0.34 1.02 0 0 Z " fill="#A9ABAD" transform="translate(136,25)"/>
<path d="M0 0 C0.99 0 1.98 0 3 0 C3 2.64 3 5.28 3 8 C3.99 8 4.98 8 6 8 C6 10.64 6 13.28 6 16 C4.68 16 3.36 16 2 16 C2 13.36 2 10.72 2 8 C0.35 7.67 -1.3 7.34 -3 7 C-2.01 6.67 -1.02 6.34 0 6 C0 4.02 0 2.04 0 0 Z " fill="#D7D7DB" transform="translate(132,43)"/>
<path d="M0 0 C2 2 2 2 2.24291992 4.03125 C2.23881104 4.8459375 2.23470215 5.660625 2.23046875 6.5 C2.22853516 7.386875 2.22660156 8.27375 2.22460938 9.1875 C2.21236328 10.115625 2.20011719 11.04375 2.1875 12 C2.18685547 12.928125 2.18621094 13.85625 2.18554688 14.8125 C2.14037187 21.71925626 2.14037187 21.71925626 1 24 C0.34 24 -0.32 24 -1 24 C-1.0270491 20.93744039 -1.04686298 17.8751214 -1.0625 14.8125 C-1.07087891 13.94818359 -1.07925781 13.08386719 -1.08789062 12.19335938 C-1.10396812 7.99713231 -1.07559038 4.09063114 0 0 Z " fill="#DBDEE4" transform="translate(115,55)"/>
<path d="M0 0 C2.6855594 2.6855594 3.06049974 5.37621328 4 9 C7.3 9.66 10.6 10.32 14 11 C14.33 11.99 14.66 12.98 15 14 C9.29410528 14.45647158 6.39901992 13.69917584 2 10 C-0.30990226 7.09399393 -1.10045944 5.90413499 -0.6875 2.1875 C-0.460625 1.465625 -0.23375 0.74375 0 0 Z " fill="#C8CBDA" transform="translate(116,77)"/>
<path d="M0 0 C0 5.28 0 10.56 0 16 C-1.32 15.67 -2.64 15.34 -4 15 C-4.91330404 11.96949115 -5.06558338 9.52031431 -4.75 6.375 C-4.68296875 5.59898438 -4.6159375 4.82296875 -4.546875 4.0234375 C-3.90901874 1.66336933 -2.79309422 0 0 0 Z " fill="#B8BBBF" transform="translate(135,26)"/>
<path d="M0 0 C0.66 0 1.32 0 2 0 C3.10087193 7.01805857 3.09733092 13.90565767 3 21 C2.67 20.01 2.34 19.02 2 18 C1.34 17.67 0.68 17.34 0 17 C0 11.39 0 5.78 0 0 Z " fill="#B8ABEF" transform="translate(87,56)"/>
<path d="M0 0 C2.02045442 0.60183749 4.02111039 1.27306096 6 2 C7.4783226 4.95664519 7.06032783 7.74229737 7 11 C6.67 9.68 6.34 8.36 6 7 C4.02 7 2.04 7 0 7 C0 4.69 0 2.38 0 0 Z " fill="#5A5760" transform="translate(136,37)"/>
<path d="M0 0 C0.66 0 1.32 0 2 0 C2 6.93 2 13.86 2 21 C1.67 21 1.34 21 1 21 C0.7834375 19.1746875 0.7834375 19.1746875 0.5625 17.3125 C0.27964196 14.97174723 -0.05225117 12.79099534 -0.625 10.5 C-1.17119942 6.85867056 -0.55447119 3.63486669 0 0 Z " fill="#AE9DEC" transform="translate(88,43)"/>
<path d="M0 0 C4.5862069 1.44827586 4.5862069 1.44827586 6.3125 3.75 C7.17450101 6.57109421 7.13329111 9.06759551 7 12 C5.02 12.33 3.04 12.66 1 13 C1 12.01 1 11.02 1 10 C1.99 10 2.98 10 4 10 C2.8905928 6.51329166 1.73662334 3.22515763 0 0 Z " fill="#C0C3CC" transform="translate(144,26)"/>
<path d="M0 0 C0.33 0.66 0.66 1.32 1 2 C1.66 2.33 2.32 2.66 3 3 C3 5.64 3 8.28 3 11 C2.34 11 1.68 11 1 11 C1 10.34 1 9.68 1 9 C0.01 9 -0.98 9 -2 9 C-2 6.36 -2 3.72 -2 1 C-1.34 0.67 -0.68 0.34 0 0 Z " fill="#A4A6AB" transform="translate(144,49)"/>
<path d="M0 0 C1.32 0 2.64 0 4 0 C4 2.64 4 5.28 4 8 C4.763125 7.79375 5.52625 7.5875 6.3125 7.375 C9 7 9 7 12 9 C9.36 9 6.72 9 4 9 C3.67 10.32 3.34 11.64 3 13 C2.87625 11.783125 2.7525 10.56625 2.625 9.3125 C2.21108694 5.93520941 1.45426549 3.10243305 0 0 Z " fill="#9490B0" transform="translate(130,51)"/>
<path d="M0 0 C0.33 0 0.66 0 1 0 C1.84888195 5.37625234 2.0024305 9.65370398 1 15 C2.32 15.33 3.64 15.66 5 16 C3.02 16 1.04 16 -1 16 C-1.02725341 14.2709226 -1.04650987 12.54171824 -1.0625 10.8125 C-1.07410156 9.84957031 -1.08570313 8.88664062 -1.09765625 7.89453125 C-1.00486622 5.14423487 -0.62111685 2.67520409 0 0 Z " fill="#92D1FD" transform="translate(155,78)"/>
<path d="M0 0 C0.99 0.66 1.98 1.32 3 2 C0.36 4.64 -2.28 7.28 -5 10 C-5.99 9.34 -6.98 8.68 -8 8 C-6.50260417 6.79557292 -5.00520833 5.59114583 -3.5078125 4.38671875 C-1.74707893 2.87729455 -1.74707893 2.87729455 0 0 Z " fill="#B7A7F4" transform="translate(139,97)"/>
<path d="M0 0 C0.66 0.33 1.32 0.66 2 1 C1.85892253 2.45880109 1.71197585 3.91703551 1.5625 5.375 C1.48128906 6.18710937 1.40007812 6.99921875 1.31640625 7.8359375 C1 10 1 10 0 12 C-0.66 12 -1.32 12 -2 12 C-1.85904936 10.3745692 -1.71207913 8.74965949 -1.5625 7.125 C-1.48128906 6.22007813 -1.40007812 5.31515625 -1.31640625 4.3828125 C-1 2 -1 2 0 0 Z " fill="#C8D9E2" transform="translate(169,46)"/>
<path d="M0 0 C2.97 0.33 5.94 0.66 9 1 C9.33 1.99 9.66 2.98 10 4 C3.375 4.25 3.375 4.25 0 2 C0 1.34 0 0.68 0 0 Z " fill="#BCBED4" transform="translate(121,87)"/>
<path d="M0 0 C0.66 0.33 1.32 0.66 2 1 C2.4140625 3.28515625 2.4140625 3.28515625 2.625 6.0625 C2.69976562 6.98160156 2.77453125 7.90070312 2.8515625 8.84765625 C2.92503906 9.91306641 2.92503906 9.91306641 3 11 C1.01953125 9.69140625 1.01953125 9.69140625 -1 8 C-1.31900332 4.87376745 -1.41441874 2.82883747 0 0 Z " fill="#B6B8BA" transform="translate(142,28)"/>
<path d="M0 0 C2.31 0.33 4.62 0.66 7 1 C8.03159626 4.09478879 7.97482862 5.52631393 7.5625 8.6875 C7.46066406 9.49574219 7.35882813 10.30398437 7.25390625 11.13671875 C7.17011719 11.75160156 7.08632812 12.36648437 7 13 C6.67 13 6.34 13 6 13 C5.90203125 12.30132812 5.8040625 11.60265625 5.703125 10.8828125 C5.55359375 9.97273438 5.4040625 9.06265625 5.25 8.125 C5.11078125 7.22007813 4.9715625 6.31515625 4.828125 5.3828125 C4.22016157 2.83785757 4.22016157 2.83785757 1.921875 1.6796875 C1.28765625 1.45539062 0.6534375 1.23109375 0 1 C0 0.67 0 0.34 0 0 Z " fill="#807F85" transform="translate(137,36)"/>
<path d="M0 0 C2 4 2 4 2 6 C3.65 6 5.3 6 7 6 C4.4345406 8.5654594 2.52313332 8.54046087 -1 9 C-0.67 6.03 -0.34 3.06 0 0 Z " fill="#B0A1E5" transform="translate(133,79)"/>
<path d="M0 0 C0.75 1.75 0.75 1.75 1 4 C-0.9375 6.25 -0.9375 6.25 -3 8 C-3.33 6.35 -3.66 4.7 -4 3 C-2.68 2.01 -1.36 1.02 0 0 Z " fill="#82C7F7" transform="translate(158,61)"/>
<path d="M0 0 C1.32 0.66 2.64 1.32 4 2 C4 3.65 4 5.3 4 7 C2.68 7.33 1.36 7.66 0 8 C-0.33 7.34 -0.66 6.68 -1 6 C-0.34 6 0.32 6 1 6 C0.67 4.02 0.34 2.04 0 0 Z " fill="#8ED2F8" transform="translate(170,59)"/>
<path d="M0 0 C0.33 0.66 0.66 1.32 1 2 C1.99 2.33 2.98 2.66 4 3 C4 4.32 4 5.64 4 7 C2.68 6.67 1.36 6.34 0 6 C-1.125 2.25 -1.125 2.25 0 0 Z " fill="#D1D2D6" transform="translate(131,35)"/>
<path d="M0 0 C0.33 0.66 0.66 1.32 1 2 C-0.65 3.65 -2.3 5.3 -4 7 C-2.92598892 4.08482708 -2.22189824 2.22189824 0 0 Z " fill="#C7D3E6" transform="translate(129,35)"/>
<path d="M0 0 C0.33 0 0.66 0 1 0 C1 1.65 1 3.3 1 5 C0.34 4.67 -0.32 4.34 -1 4 C-0.67 2.68 -0.34 1.36 0 0 Z " fill="#FCFCFF" transform="translate(288,66)"/>
<path d="M0 0 C0.66 0 1.32 0 2 0 C2 0.66 2 1.32 2 2 C1.34 2 0.68 2 0 2 C0 1.34 0 0.68 0 0 Z " fill="#F6EFFF" transform="translate(379,82)"/>
<path d="M0 0 C2 1 2 1 2 1 Z " fill="#FFFFFF" transform="translate(256,74)"/>
<path d="" fill="#D4FFFF" transform="translate(0,0)"/>
<path d="" fill="#FFFFFF" transform="translate(0,0)"/>
<path d="" fill="#FFFFFF" transform="translate(0,0)"/>
<path d="" fill="#FFFFFF" transform="translate(0,0)"/>
<path d="" fill="#FFFFFF" transform="translate(0,0)"/>
</svg>
